# xmcd
#
# Track frame offsets: 
#        150
#        4770
#        18402
#        30368
#        47102
#        59897
#        70748
#        78376
#        92805
#        112941
#        128448
#        140384
#        160215
#        180582
#        195900
#        211815
#        216440
#        237738
#        263247
#
# Disc length: 3847 seconds
#
# Revision: 0
# Processed by: cddbd v1.5.2PL0 Copyright (c) Steve Scherf et al.
# Submitted via: ExactAudioCopy v0.99pb5
#
DISCID=040f0513
DTITLE=B-Real - The Gunslinger Part II: Fist Full Of Dollars
DYEAR=2006
DGENRE=Rap
TTITLE0=Fist Full Of Dollars
TTITLE1=Body Somethin feat. Alchemist
TTITLE2=The Take Over feat. O Brown and Willie Malo
TTITLE3=The Hustle feat. Trace Midas
TTITLE4=Drop That Shit feat. Willie Malo and Son Doobie
TTITLE5=Incredible
TTITLE6=Listen To Me feat. Willie Malo and Son Doobie
TTITLE7=Put On Your Vest feat. Defari
TTITLE8=Breathe feat. Crow Of Street Platoon
TTITLE9=L.A. Bangers
TTITLE10=Teflon Killas feat. Willie Malo and Son Doobie
TTITLE11=The Set Up feat. Willie Malo and O Brown
TTITLE12=Lay U Flat feat. Proof Of D12
TTITLE13=U Can't Win feat. Outthere
TTITLE14=Phoenix
TTITLE15=Flash Kharma feat. Everlast and Chace Infinite
TTITLE16=Family Ties (Remix) feat. Son Doobie, XL, Sen Dog, Sick Jack,
TTITLE16=Willie Malo and Everlast
TTITLE17=Untitled (Bonus Track)
TTITLE18=Untitled (Bonus Track)
EXTD=
EXTT0=
EXTT1=
EXTT2=
EXTT3=
EXTT4=
EXTT5=
EXTT6=
EXTT7=
EXTT8=
EXTT9=
EXTT10=
EXTT11=
EXTT12=
EXTT13=
EXTT14=
EXTT15=
EXTT16=
EXTT17=
EXTT18=
PLAYORDER=
